<svg width="800" height="800" viewBox="0 0 800 800" fill="none" xmlns="http://www.w3.org/2000/svg">
<path d="M333.333 266.667V233.333C333.333 201.906 333.333 186.193 343.097 176.43C352.86 166.667 368.573 166.667 400 166.667H566.667C598.093 166.667 613.807 166.667 623.57 176.43C633.333 186.193 633.333 201.906 633.333 233.333V400C633.333 431.427 633.333 447.14 623.57 456.903C613.807 466.667 598.093 466.667 566.667 466.667H533.333M233.333 633.333H400C431.427 633.333 447.14 633.333 456.903 623.57C466.667 613.807 466.667 598.093 466.667 566.667V400C466.667 368.573 466.667 352.86 456.903 343.097C447.14 333.333 431.427 333.333 400 333.333H233.333C201.906 333.333 186.193 333.333 176.43 343.097C166.667 352.86 166.667 368.573 166.667 400V566.667C166.667 598.093 166.667 613.807 176.43 623.57C186.193 633.333 201.906 633.333 233.333 633.333Z" stroke="white" stroke-width="33.3333" stroke-linecap="round" stroke-linejoin="round"/>
</svg>
